[Header]
FileType HTR
DataType HTRS
FileVersion 1
NumSegments 64
NumFrames 3
DataFrameRate 24
EulerRotationOrder ZYX
CalibrationUnits mm
RotationUnits Degrees
GlobalAxisofGravity Y
BoneLengthAxis Y
ScaleFactor 1.0
[SegmentNames&Hierarchy]
Hips	GLOBAL
Spine	Hips
Spine1	Spine
Spine2	Spine1
Neck	Spine2
Head	Neck
LeftEye	Head
RightEye	Head
LeftShoulder	Spine2
LeftArm	LeftShoulder
LeftForeArm	LeftArm
LeftHand	LeftForeArm
LeftHandThumb1	LeftHand
LeftHandThumb2	LeftHandThumb1
LeftHandThumb3	LeftHandThumb2
LeftHandThumb4	LeftHandThumb3
LeftHandIndex1	LeftHand
LeftHandIndex2	LeftHandIndex1
LeftHandIndex3	LeftHandIndex2
LeftHandIndex4	LeftHandIndex3
LeftHandMiddle1	LeftHand
LeftHandMiddle2	LeftHandMiddle1
LeftHandMiddle3	LeftHandMiddle2
LeftHandMiddle4	LeftHandMiddle3
LeftHandRing1	LeftHand
LeftHandRing2	LeftHandRing1
LeftHandRing3	LeftHandRing2
LeftHandRing4	LeftHandRing3
LeftHandPinky1	LeftHand
LeftHandPinky2	LeftHandPinky1
LeftHandPinky3	LeftHandPinky2
LeftHandPinky4	LeftHandPinky3
RightShoulder	Spine2
RightArm	RightShoulder
RightForeArm	RightArm
RightHand	RightForeArm
RightHandPinky1	RightHand
RightHandPinky2	RightHandPinky1
RightHandPinky3	RightHandPinky2
RightHandPinky4	RightHandPinky3
RightHandRing1	RightHand
RightHandRing2	RightHandRing1
RightHandRing3	RightHandRing2
RightHandRing4	RightHandRing3
RightHandMiddle1	RightHand
RightHandMiddle2	RightHandMiddle1
RightHandMiddle3	RightHandMiddle2
RightHandMiddle4	RightHandMiddle3
RightHandIndex1	RightHand
RightHandIndex2	RightHandIndex1
RightHandIndex3	RightHandIndex2
RightHandIndex4	RightHandIndex3
RightHandThumb1	RightHand
RightHandThumb2	RightHandThumb1
RightHandThumb3	RightHandThumb2
RightHandThumb4	RightHandThumb3
LeftUpLeg	Hips
LeftLeg	LeftUpLeg
LeftFoot	LeftLeg
LeftToeBase	LeftFoot
RightUpLeg	Hips
RightLeg	RightUpLeg
RightFoot	RightLeg
RightToeBase	RightFoot
[BasePosition]
Hips	0	0	0	0	0	0	1
Spine	0	0	0	0	0	0	1
Spine1	0	0	0	0	0	0	1
Spine2	0	0	0	0	0	0	1
Neck	0	0	0	0	0	0	1
Head	0	0	0	0	0	0	1
LeftEye	0	0	0	0	0	0	1
RightEye	0	0	0	0	0	0	1
LeftShoulder	0	0	0	0	0	0	1
LeftArm	0	0	0	0	0	0	1
LeftForeArm	0	0	0	0	0	0	1
LeftHand	0	0	0	0	0	0	1
LeftHandThumb1	0	0	0	0	0	0	1
LeftHandThumb2	0	0	0	0	0	0	1
LeftHandThumb3	0	0	0	0	0	0	1
LeftHandThumb4	0	0	0	0	0	0	1
LeftHandIndex1	0	0	0	0	0	0	1
LeftHandIndex2	0	0	0	0	0	0	1
LeftHandIndex3	0	0	0	0	0	0	1
LeftHandIndex4	0	0	0	0	0	0	1
LeftHandMiddle1	0	0	0	0	0	0	1
LeftHandMiddle2	0	0	0	0	0	0	1
LeftHandMiddle3	0	0	0	0	0	0	1
LeftHandMiddle4	0	0	0	0	0	0	1
LeftHandRing1	0	0	0	0	0	0	1
LeftHandRing2	0	0	0	0	0	0	1
LeftHandRing3	0	0	0	0	0	0	1
LeftHandRing4	0	0	0	0	0	0	1
LeftHandPinky1	0	0	0	0	0	0	1
LeftHandPinky2	0	0	0	0	0	0	1
LeftHandPinky3	0	0	0	0	0	0	1
LeftHandPinky4	0	0	0	0	0	0	1
RightShoulder	0	0	0	0	0	0	1
RightArm	0	0	0	0	0	0	1
RightForeArm	0	0	0	0	0	0	1
RightHand	0	0	0	0	0	0	1
RightHandPinky1	0	0	0	0	0	0	1
RightHandPinky2	0	0	0	0	0	0	1
RightHandPinky3	0	0	0	0	0	0	1
RightHandPinky4	0	0	0	0	0	0	1
RightHandRing1	0	0	0	0	0	0	1
RightHandRing2	0	0	0	0	0	0	1
RightHandRing3	0	0	0	0	0	0	1
RightHandRing4	0	0	0	0	0	0	1
RightHandMiddle1	0	0	0	0	0	0	1
RightHandMiddle2	0	0	0	0	0	0	1
RightHandMiddle3	0	0	0	0	0	0	1
RightHandMiddle4	0	0	0	0	0	0	1
RightHandIndex1	0	0	0	0	0	0	1
RightHandIndex2	0	0	0	0	0	0	1
RightHandIndex3	0	0	0	0	0	0	1
RightHandIndex4	0	0	0	0	0	0	1
RightHandThumb1	0	0	0	0	0	0	1
RightHandThumb2	0	0	0	0	0	0	1
RightHandThumb3	0	0	0	0	0	0	1
RightHandThumb4	0	0	0	0	0	0	1
LeftUpLeg	0	0	0	0	0	0	1
LeftLeg	0	0	0	0	0	0	1
LeftFoot	0	0	0	0	0	0	1
LeftToeBase	0	0	0	0	0	0	1
RightUpLeg	0	0	0	0	0	0	1
RightLeg	0	0	0	0	0	0	1
RightFoot	0	0	0	0	0	0	1
RightToeBase	0	0	0	0	0	0	1
[Hips]
21	27.01434135	1020.439209	66.05998993	9.407149315	-62.26413727	-11.60306644	1.0
22	15.37010956	1020.225586	59.80354309	11.09594345	-65.3946228	-13.14684105	1.0
23	2.092479467	1020.349731	52.66153717	13.14845467	-68.50990295	-15.04507065	1.0
[Spine]
21	0	101.8159943	1.315000057	1.54006958	0.6945047975	2.57959938	1.0
22	0	101.8159943	1.315000057	1.516710877	1.034890652	2.72209549	1.0
23	0	101.8159943	1.315000057	1.541617513	1.144800305	2.84611702	1.0
[Spine1]
21	0	100.8349991	-10.00800037	1.189581275	2.978320837	6.352348804	1.0
22	0	100.8349991	-10.00800037	1.144459844	3.264339685	6.168531418	1.0
23	0	100.8349991	-10.00800037	1.102046728	3.235394239	5.909305096	1.0
[Spine2]
21	0	91	-13.73399925	0.9303869009	3.528544426	6.212118626	1.0
22	0	91	-13.73399925	0.89773947	3.809516668	6.024378777	1.0
23	0	91	-13.73399925	0.8740804791	3.773088217	5.766688347	1.0
[Neck]
21	0	166.7169952	-25.16200066	3.669468403	-7.666394711	-2.426249266	1.0
22	0	166.7169952	-25.16200066	3.660083055	-7.178590775	-2.661938906	1.0
23	0	166.7169952	-25.16200066	3.437311649	-6.381995201	-2.758465528	1.0
[Head]
21	0	96.17900085	16.84999847	2.426386833	-20.30732346	-2.069838762	1.0
22	0	96.17900085	16.84999847	3.168606997	-18.23470497	-3.447710991	1.0
23	0	96.17900085	16.84999847	3.547228575	-15.34896564	-4.60360527	1.0
[LeftEye]
21	30.6760006	64.09500122	92.83599854	0	0	0	1.0
22	30.6760006	64.09500122	92.83599854	0	0	0	1.0
23	30.6760006	64.09500122	92.83599854	0	0	0	1.0
[RightEye]
21	-30.6760006	64.09500122	92.83499908	0	0	0	1.0
22	-30.6760006	64.09500122	92.83499908	0	0	0	1.0
23	-30.6760006	64.09500122	92.83499908	0	0	0	1.0
[LeftShoulder]
21	45.70400238	109.4599991	-26.28000069	4.969696045	-11.83038235	-7.454507828	1.0
22	45.70400238	109.4599991	-26.28000069	4.978453159	-11.92392063	-7.570933819	1.0
23	45.70400238	109.4599991	-26.28000069	4.972978592	-12.17797089	-7.391393185	1.0
[LeftArm]
21	105.923996	-5.24600029	-22.32099915	-3.714880705	3.675332546	-80.57917023	1.0
22	105.923996	-5.24600029	-22.32099915	-2.928283215	3.601777077	-81.26821136	1.0
23	105.923996	-5.24600029	-22.32099915	-2.278907537	3.479480267	-81.81531525	1.0
[LeftForeArm]
21	278.414978	-0.0009999999311	0	6.157061307e-06	-16.8361454	-0.0002105502936	1.0
22	278.414978	-0.0009999999311	0	-2.388877874e-06	-16.43499374	-0.0001966672426	1.0
23	278.414978	-0.0009999999311	0	3.784408818e-06	-16.12727547	-0.0002009510063	1.0
[LeftHand]
21	283.2879944	0	0	-29.67140388	-4.997729301	-6.222185612	1.0
22	283.2879944	0	0	-29.56818008	-3.628116369	-8.454255104	1.0
23	283.2879944	0	0	-29.07944489	-2.822493076	-9.860028267	1.0
[LeftHandThumb1]
21	24.6609993	-15.75	26.8239994	18.70199966	-4.23372221	9.452652931	1.0
22	24.6609993	-15.75	26.8239994	18.73544121	-4.298467636	9.381851196	1.0
23	24.6609993	-15.75	26.8239994	18.4689045	-4.456437588	9.50609684	1.0
[LeftHandThumb2]
21	32.29800034	-18.64699936	18.64699936	-1.033647776	32.34461594	-2.695557594	1.0
22	32.29800034	-18.64699936	18.64699936	-1.060114384	32.34924316	-2.686920166	1.0
23	32.29800034	-18.64699936	18.64699936	-1.010683417	32.60575104	-2.807235479	1.0
[LeftHandThumb3]
21	26.52600098	-15.31499958	15.31499958	2.070165157	9.262202263	-0.004187587649	1.0
22	26.52600098	-15.31499958	15.31499958	2.063872814	9.242424011	0.0009783254936	1.0
23	26.52600098	-15.31499958	15.31499958	2.062854767	9.239273071	0.001806516084	1.0
[LeftHandThumb4]
21	19.54599953	-11.28499985	11.28499985	0	0	0	1.0
22	19.54599953	-11.28499985	11.28499985	0	0	0	1.0
23	19.54599953	-11.28499985	11.28499985	0	0	0	1.0
[LeftHandIndex1]
21	91.09299469	-5.170999527	22.60099792	-0.2387167662	4.560660839	-7.177538872	1.0
22	91.09299469	-5.170999527	22.60099792	-0.2481730282	4.560098648	-7.251730442	1.0
23	91.09299469	-5.170999527	22.60099792	-0.2865691185	4.611506462	-7.636101246	1.0
[LeftHandIndex2]
21	36.76399994	0	0	-0.6226840019	2.760122299	-20.45768738	1.0
22	36.76399994	0	0	-0.6205678582	2.756220579	-20.41404343	1.0
23	36.76399994	0	0	-0.6215695739	2.758058786	-20.43454552	1.0
[LeftHandIndex3]
21	28.83100128	0	0	-0.1077053398	0.7941460609	-10.05545235	1.0
22	28.83100128	0	0	-0.1069428548	0.7898378968	-10.01189995	1.0
23	28.83100128	0	0	-0.107300885	0.7918602228	-10.03238487	1.0
[LeftHandIndex4]
21	23.92700005	0	0	0	0	0	1.0
22	23.92700005	0	0	0	0	0	1.0
23	23.92700005	0	0	0	0	0	1.0
[LeftHandMiddle1]
21	95.33399963	0	0	-1.462045789	8.632618904	-15.38481903	1.0
22	95.33399963	0	0	-1.468599558	8.61315918	-15.44139671	1.0
23	95.33399963	0	0	-1.505480528	8.642482758	-15.74816227	1.0
[LeftHandMiddle2]
21	36.98199844	0	0	-1.413027048	3.808335066	-33.21534348	1.0
22	36.98199844	0	0	-1.409431696	3.804411411	-33.16278839	1.0
23	36.98199844	0	0	-1.41272521	3.808003902	-33.21097565	1.0
[LeftHandMiddle3]
21	29.50900078	0	0	-0.1444091946	1.466094255	-12.06288624	1.0
22	29.50900078	0	0	-0.1432067156	1.460951328	-12.00987053	1.0
23	29.50900078	0	0	-0.1443040222	1.465623617	-12.05806065	1.0
[LeftHandMiddle4]
21	28.3390007	0	0	0	0	0	1.0
22	28.3390007	0	0	0	0	0	1.0
23	28.3390007	0	0	0	0	0	1.0
[LeftHandRing1]
21	91.04499817	-0.4390000105	-18.65100098	-2.956923008	11.60245037	-26.42774773	1.0
22	91.04499817	-0.4390000105	-18.65100098	-2.958973646	11.59157372	-26.44761086	1.0
23	91.04499817	-0.4390000105	-18.65100098	-2.996847153	11.55017757	-26.75497246	1.0
[LeftHandRing2]
21	31.54000092	0	0	-1.188848376	4.044481754	-40.05974197	1.0
22	31.54000092	0	0	-1.18482089	4.039290428	-39.99348831	1.0
23	31.54000092	0	0	-1.184809566	4.039256573	-39.99315643	1.0
[LeftHandRing3]
21	29.37700081	0	0	-0.08897589147	1.889946103	-19.19903374	1.0
22	29.37700081	0	0	-0.08743428439	1.883528948	-19.1326046	1.0
23	29.37700081	0	0	-0.08738573641	1.883313775	-19.1304493	1.0
[LeftHandRing4]
21	26.47500038	0	0	0	0	0	1.0
22	26.47500038	0	0	0	0	0	1.0
23	26.47500038	0	0	0	0	0	1.0
[LeftHandPinky1]
21	80.77799988	-4.887000084	-38.06099701	-5.185092449	16.20570374	-36.59539795	1.0
22	80.77799988	-4.887000084	-38.06099701	-5.183107376	16.17320633	-36.59849548	1.0
23	80.77799988	-4.887000084	-38.06099701	-5.20734024	16.08450127	-36.82256317	1.0
[LeftHandPinky2]
21	36	0	0	-1.940732837	3.813249826	-45.59833527	1.0
22	36	0	0	-1.938134193	3.810994387	-45.56380844	1.0
23	36	0	0	-1.937714577	3.81062603	-45.55804443	1.0
[LeftHandPinky3]
21	21.14200211	0	0	-0.5405739546	2.827912807	-20.46269417	1.0
22	21.14200211	0	0	-0.5390921235	2.824778318	-20.42824554	1.0
23	21.14200211	0	0	-0.5388448238	2.824285984	-20.42250633	1.0
[LeftHandPinky4]
21	19.75699997	0	0	0	0	0	1.0
22	19.75699997	0	0	0	0	0	1.0
23	19.75699997	0	0	0	0	0	1.0
[RightShoulder]
21	-45.70000076	109.4620056	-26.28000069	4.339744091	2.907492399	3.567842007	1.0
22	-45.70000076	109.4620056	-26.28000069	4.28942585	3.39070344	3.490974426	1.0
23	-45.70000076	109.4620056	-26.28000069	4.305924416	3.431639671	3.574021101	1.0
[RightArm]
21	-105.9280014	-5.248000145	-22.32099915	2.755783796	-0.4734113812	70.59887695	1.0
22	-105.9280014	-5.248000145	-22.32099915	2.841126919	0.2149161547	69.08030701	1.0
23	-105.9280014	-5.248000145	-22.32099915	2.980189323	0.9756343961	68.17072296	1.0
[RightForeArm]
21	-278.414978	0	0	5.50484674e-06	8.063491821	2.62614958e-05	1.0
22	-278.414978	0	0	-7.942889169e-06	10.45571232	1.095172138e-05	1.0
23	-278.414978	0	0	-1.620340186e-06	13.49012566	-1.782184518e-05	1.0
[RightHand]
21	-283.2879944	0	0.0009999999311	-9.891981125	-11.17799664	15.01894855	1.0
22	-283.2879944	0	0.0009999999311	-11.99209309	-11.59731674	12.61963463	1.0
23	-283.2879944	0	0.0009999999311	-13.71562958	-11.83858395	10.83214378	1.0
[RightHandPinky1]
21	-80.76699829	-4.885000229	-38.06000137	-5.015074253	-16.30101395	35.18952942	1.0
22	-80.76699829	-4.885000229	-38.06000137	-5.016136646	-16.10136795	35.40213776	1.0
23	-80.76699829	-4.885000229	-38.06000137	-5.016259193	-15.93843079	35.56513977	1.0
[RightHandPinky2]
21	-36	0	0.0009999999311	-1.951491356	-3.822161436	45.75995255	1.0
22	-36	0	0.0009999999311	-1.948777914	-3.819809198	45.72376251	1.0
23	-36	0	0.0009999999311	-1.949888587	-3.820773602	45.73856735	1.0
[RightHandPinky3]
21	-21.14200211	0	0	-0.769833684	0.04618083686	22.22033501	1.0
22	-21.14200211	0	0	-0.7681798339	0.04939259961	22.18430901	1.0
23	-21.14200211	0	0	-0.7688577771	0.04805905372	22.19902229	1.0
[RightHandPinky4]
21	-19.75699997	0	0	0	0	0	1.0
22	-19.75699997	0	0	0	0	0	1.0
23	-19.75699997	0	0	0	0	0	1.0
[RightHandRing1]
21	-91.03599548	-0.4390000105	-18.65100098	-2.773031473	-11.50286865	25.03895378	1.0
22	-91.03599548	-0.4390000105	-18.65100098	-2.802167177	-11.51809883	25.26028824	1.0
23	-91.03599548	-0.4390000105	-18.65100098	-2.827891588	-11.52868462	25.45647621	1.0
[RightHandRing2]
21	-31.54000092	0	0	-1.185761929	-4.040219307	40.01202774	1.0
22	-31.54000092	0	0	-1.188704967	-4.044001102	40.06043243	1.0
23	-31.54000092	0	0	-1.193717957	-4.050391674	40.14283752	1.0
[RightHandRing3]
21	-29.37700081	0	0	-0.1344113499	0.1082786098	17.62808418	1.0
22	-29.37700081	0	0	-0.1354147792	0.1035815924	17.67640495	1.0
23	-29.37700081	0	0	-0.1371195465	0.09557210654	17.75855637	1.0
[RightHandRing4]
21	-26.47500038	0	0	0	0	0	1.0
22	-26.47500038	0	0	0	0	0	1.0
23	-26.47500038	0	0	0	0	0	1.0
[RightHandMiddle1]
21	-95.32500458	0	0	-1.268483639	-8.86487484	13.72639561	1.0
22	-95.32500458	0	0	-1.297903419	-8.671634674	13.9925375	1.0
23	-95.32500458	0	0	-1.322599173	-8.478118896	14.21873474	1.0
[RightHandMiddle2]
21	-36.98199844	0	0	-1.415210843	-3.810420752	33.24921799	1.0
22	-36.98199844	0	0	-1.416728497	-3.812068462	33.27133942	1.0
23	-36.98199844	0	0	-1.41885674	-3.814365387	33.30241776	1.0
[RightHandMiddle3]
21	-29.50900078	0	0	-0.2487930655	-1.662885427	15.73802471	1.0
22	-29.50900078	0	0	-0.2493242621	-1.664635777	15.75635338	1.0
23	-29.50900078	0	0	-0.2501020432	-1.6672405	15.78373814	1.0
[RightHandMiddle4]
21	-28.3390007	0	0.0009999999311	0	0	0	1.0
22	-28.3390007	0	0.0009999999311	0	0	0	1.0
23	-28.3390007	0	0.0009999999311	0	0	0	1.0
[RightHandIndex1]
21	-91.08300018	-5.167999744	22.60099792	0.1543111354	-4.531395435	4.4420228	1.0
22	-91.08300018	-5.167999744	22.60099792	0.05493310466	-4.503321648	4.981187344	1.0
23	-91.08300018	-5.167999744	22.60099792	-0.04552257434	-4.452240467	5.442700386	1.0
[RightHandIndex2]
21	-36.76399994	0	0	-0.6315572858	-2.776393652	20.64274597	1.0
22	-36.76399994	0	0	-0.6313402653	-2.776005268	20.63833618	1.0
23	-36.76399994	0	0	-0.6323398352	-2.777812004	20.65854645	1.0
[RightHandIndex3]
21	-28.83100128	0	0	-0.2401963025	-0.1642409116	13.91413212	1.0
22	-28.83100128	0	0	-0.2400709689	-0.1638133675	13.90972519	1.0
23	-28.83100128	0	0	-0.2405621111	-0.1657848656	13.92990112	1.0
[RightHandIndex4]
21	-23.92700005	0	0	0	0	0	1.0
22	-23.92700005	0	0	0	0	0	1.0
23	-23.92700005	0	0	0	0	0	1.0
[RightHandThumb1]
21	-24.64799881	-15.72700024	26.82600021	19.37625694	0.933439374	-10.21603584	1.0
22	-24.64799881	-15.72700024	26.82600021	18.75956535	1.707504511	-10.40658379	1.0
23	-24.64799881	-15.72700024	26.82600021	18.5740242	2.254290819	-10.41242218	1.0
[RightHandThumb2]
21	-32.29800034	-18.64699936	18.64699936	-0.4321423471	-31.27611542	3.140714645	1.0
22	-32.29800034	-18.64699936	18.64699936	-0.4535433948	-31.79865837	3.111337662	1.0
23	-32.29800034	-18.64699936	18.64699936	-0.4425836205	-32.01127243	2.988428593	1.0
[RightHandThumb3]
21	-26.52600098	-15.31399918	15.31399918	1.858430624	-7.883734226	0.9030554891	1.0
22	-26.52600098	-15.31399918	15.31399918	1.857976675	-8.052630424	0.6850422025	1.0
23	-26.52600098	-15.31399918	15.31399918	1.85953939	-8.188065529	0.6357085705	1.0
[RightHandThumb4]
21	-19.54599953	-11.28499985	11.28499985	0	0	0	1.0
22	-19.54599953	-11.28499985	11.28499985	0	0	0	1.0
23	-19.54599953	-11.28499985	11.28499985	0	0	0	1.0
[LeftUpLeg]
21	82.07800293	-67.51699829	-15.99599934	-11.64599991	33.83521652	11.66244984	1.0
22	82.07800293	-67.51699829	-15.99599934	-15.31407452	29.4054451	11.08080196	1.0
23	82.07800293	-67.51699829	-15.99599934	-17.20446396	25.25123978	11.48315144	1.0
[LeftLeg]
21	0	-443.7049866	2.845999956	33.48058319	8.391646385	6.402345181	1.0
22	0	-443.7049866	2.845999956	35.54345703	6.979839802	8.152269363	1.0
23	0	-443.7049866	2.845999956	36.48093033	5.40096426	8.305487633	1.0
[LeftFoot]
21	0	-444.2789917	-29.8219986	-5.929470062	22.32236481	-15.4468174	1.0
22	0	-444.2789917	-29.8219986	-0.6636148691	19.31899452	-15.40917778	1.0
23	0	-444.2789917	-29.8219986	2.44575429	16.49648666	-15.34708023	1.0
[LeftToeBase]
21	0	-87.28699493	107.1060028	-11.1790905	-0.0001920984796	-0.0009763116832	1.0
22	0	-87.28699493	107.1060028	-14.98544598	-0.00857698638	-0.03931764513	1.0
23	0	-87.28699493	107.1060028	-15.94603252	-0.02159304731	-0.0972012803	1.0
[RightUpLeg]
21	-82.07800293	-67.51699829	-15.99599934	-3.528362989	-22.32025337	5.356038094	1.0
22	-82.07800293	-67.51699829	-15.99599934	-3.444603205	-16.77090073	6.721352577	1.0
23	-82.07800293	-67.51699829	-15.99599934	-2.883978844	-11.65813923	8.274188995	1.0
[RightLeg]
21	0	-443.7049866	2.861999989	13.21033001	2.252410412	7.456389904	1.0
22	0	-443.7049866	2.861999989	12.76329041	-0.0524962768	5.827623844	1.0
23	0	-443.7049866	2.861999989	11.93191147	-3.410318375	3.412174702	1.0
[RightFoot]
21	0	-444.2770081	-29.83799934	-8.792345047	-16.30799294	-5.175748348	1.0
22	0	-444.2770081	-29.83799934	-9.103458405	-16.13436127	-4.842592716	1.0
23	0	-444.2770081	-29.83799934	-9.351934433	-14.42513084	-4.257646561	1.0
[RightToeBase]
21	0	-87.28699493	107.1060028	-0.6609251499	8.464538155e-07	-7.314048389e-07	1.0
22	0	-87.28699493	107.1060028	-0.6041833162	3.639930583e-05	-3.382938374e-08	1.0
23	0	-87.28699493	107.1060028	-0.5798046589	-2.330062489e-05	-1.895261676e-06	1.0
[EndOfFile]
